<svg width="53" height="52" viewBox="0 0 53 52" fill="none" xmlns="http://www.w3.org/2000/svg">
<g clip-path="url(#clip0)">
<path d="M16.4014 41.0926H18.2172V12.4294H16.4014V41.0926Z" fill="white"/>
<path fill-rule="evenodd" clip-rule="evenodd" d="M52.3109 26.0181C52.3109 39.9603 40.639 51.2602 26.2388 51.2602C11.8377 51.2602 0.167725 39.9602 0.167725 26.0181C0.167725 12.0738 11.8377 0.771922 26.2388 0.771973C40.639 0.771973 52.3109 12.0738 52.3109 26.0181ZM18.2169 41.0923H16.401V12.4292H18.2169V41.0923ZM12.2147 22.7824C12.2147 20.9914 8.98083 21.0438 8.9491 22.8706L8.94915 22.8705L8.95332 22.7824V31.1613C8.98616 32.9839 12.2148 32.9563 12.2148 31.1613V29.3098H14.7269V31.0435C14.8782 35.8353 6.38077 35.7175 6.44638 31.0435V22.7824C6.38077 18.1083 14.8761 18.1012 14.7163 22.9012V24.3356H12.2443L12.2147 22.7824ZM24.635 19.7763C23.5037 20.3829 23.072 21.0028 23.072 21.0028H23.0718L23.0622 19.6882H19.5225V21.4761L20.9035 21.4843V32.4358L19.7395 32.4318V34.2308H23.4094V22.5438C23.5254 20.8899 26.4049 20.8641 26.4049 22.5427L26.4075 34.2308H30.4974V32.4358H28.9069V22.6563C28.8265 21.346 28.399 20.1708 27.2688 19.6882C27.472 19.7731 26.0688 19.0069 24.635 19.7763ZM23.4092 22.5454C23.4075 22.5708 23.4064 22.5965 23.406 22.6226L23.4092 22.5454ZM43.2053 33.9617C42.0974 33.4693 41.6767 32.3023 41.5991 31.0034L41.5991 31.0035V15.9249H44.1251V19.6881L44.1113 19.7168H46.5325V21.4759H44.1187L44.1255 21.4934L44.1187 31.197C44.1684 32.1234 44.7557 32.4358 45.4362 32.4276C45.9717 32.4235 46.977 32.4358 46.977 32.4358V34.2329C46.977 34.2329 44.9832 34.2308 44.5706 34.2411C43.9444 34.2468 43.3331 34.0141 43.2184 33.9673C43.2231 33.9694 43.2286 33.9718 43.2351 33.9747C43.228 33.9716 43.2208 33.9685 43.2138 33.9654C43.2044 33.9616 43.1994 33.9594 43.1993 33.9592C43.1991 33.9591 43.2011 33.9599 43.2053 33.9617ZM37.052 29.3101V29.3098H37.0519V29.3101H37.052ZM37.052 31.1613V29.3101H39.562V31.0437C39.7176 35.8355 31.2192 35.7177 31.2858 31.0437V22.7826C31.2191 18.1085 39.7091 18.1014 39.5535 22.9014V26.8645C39.5535 27.1113 39.3462 27.3101 39.0954 27.3101L33.7885 27.3069V31.1613C33.8223 32.9839 37.052 32.9563 37.052 31.1613ZM37.0519 22.7824C37.0519 20.9914 33.8318 20.9761 33.7885 22.7701L33.7881 22.7696V25.4858L37.0443 25.4842L37.0519 22.7824Z" fill="#261F23"/>
</g>
<defs>
<clipPath id="clip0">
<rect width="52.1464" height="50.4883" fill="white" transform="translate(0.166016 0.771973)"/>
</clipPath>
</defs>
</svg>
