<svg width="46" height="58" viewBox="0 0 46 58" fill="none" xmlns="http://www.w3.org/2000/svg">
<path d="M34.2666 21.0112C34.2666 30.3841 32.576 40.8897 23.0261 40.8897C14.0599 40.8897 12.2385 30.3841 12.3039 21.3254C12.3693 11.4482 13.7983 0.755096 23.089 0.755096C32.3168 0.755096 34.2666 11.0731 34.2666 21.0112ZM23.0261 41.6472C34.5257 41.6472 43.1673 31.9601 43.1673 20.8236C43.1673 9.75049 34.6565 0 23.1544 0C12.1077 0 3.40063 10.0038 3.40063 21.1378C3.40315 32.021 11.7857 41.6472 23.0261 41.6472Z" fill="#261F23"/>
<path d="M22.3469 47.6349C22.3469 48.5656 21.5921 49.0967 20.8852 49.0967C20.1682 49.0967 19.4261 48.5656 19.4261 47.6349C19.4261 46.7042 20.1682 46.1804 20.8852 46.1804C21.5921 46.1804 22.3469 46.7042 22.3469 47.6349ZM22.9431 47.6349C22.9431 46.4264 21.9217 45.6833 20.8852 45.6833C19.8512 45.6833 18.8298 46.4264 18.8298 47.6349C18.8298 48.8555 19.8512 49.5913 20.8852 49.5913C21.9217 49.5913 22.9431 48.8555 22.9431 47.6349Z" fill="#261F23"/>
<path d="M22.3469 47.6349C22.3469 48.5656 21.5921 49.0967 20.8852 49.0967C20.1682 49.0967 19.4261 48.5656 19.4261 47.6349C19.4261 46.7042 20.1682 46.1804 20.8852 46.1804C21.5921 46.1804 22.3469 46.7042 22.3469 47.6349ZM22.9431 47.6349C22.9431 46.4264 21.9217 45.6833 20.8852 45.6833C19.8512 45.6833 18.8298 46.4264 18.8298 47.6349C18.8298 48.8555 19.8512 49.5913 20.8852 49.5913C21.9217 49.5913 22.9431 48.8555 22.9431 47.6349Z" stroke="#261F23" stroke-width="0.124958"/>
<path d="M27.5259 46.8158C27.5259 47.2106 27.1838 47.3884 26.8366 47.3884H26.3561V46.2456H26.8366C27.1838 46.2432 27.5259 46.4259 27.5259 46.8158ZM28.1096 46.8158C28.1096 46.1019 27.4882 45.7607 26.9398 45.7607H25.7725V49.5205H26.3561V47.8709H26.9398C27.4882 47.8709 28.1096 47.5298 28.1096 46.8158Z" fill="#261F23"/>
<path d="M27.5259 46.8158C27.5259 47.2106 27.1838 47.3884 26.8366 47.3884H26.3561V46.2456H26.8366C27.1838 46.2432 27.5259 46.4259 27.5259 46.8158ZM28.1096 46.8158C28.1096 46.1019 27.4882 45.7607 26.9398 45.7607H25.7725V49.5205H26.3561V47.8709H26.9398C27.4882 47.8709 28.1096 47.5298 28.1096 46.8158Z" stroke="#261F23" stroke-width="0.124958"/>
<path d="M32.618 46.8158C32.618 47.2106 32.2784 47.3884 31.9312 47.3884H31.3903V46.2456H31.9312C32.2784 46.2432 32.618 46.4259 32.618 46.8158ZM33.8482 49.5205L32.5224 47.7807C32.8972 47.6345 33.2042 47.3153 33.2042 46.8158C33.2042 46.1019 32.5853 45.7607 32.0368 45.7607H30.8066V49.5205H31.3903V47.8709H31.9387L33.1614 49.5205H33.8482Z" fill="#261F23"/>
<path d="M32.618 46.8158C32.618 47.2106 32.2784 47.3884 31.9312 47.3884H31.3903V46.2456H31.9312C32.2784 46.2432 32.618 46.4259 32.618 46.8158ZM33.8482 49.5205L32.5224 47.7807C32.8972 47.6345 33.2042 47.3153 33.2042 46.8158C33.2042 46.1019 32.5853 45.7607 32.0368 45.7607H30.8066V49.5205H31.3903V47.8709H31.9387L33.1614 49.5205H33.8482Z" stroke="#261F23" stroke-width="0.124958"/>
<path d="M38.4114 48.0947H37.2969L37.5937 47.381C37.6742 47.1862 37.7396 47.0157 37.8453 46.7161H37.8579C37.961 47.0108 38.029 47.1813 38.1145 47.3884L38.4114 48.0947ZM39.6239 49.5195L37.9686 45.7078H37.7547L36.0994 49.5195H36.678L37.0981 48.5477H38.6076L39.0277 49.5195H39.6239Z" fill="#261F23"/>
<path d="M38.4114 48.0947H37.2969L37.5937 47.381C37.6742 47.1862 37.7396 47.0157 37.8453 46.7161H37.8579C37.961 47.0108 38.029 47.1813 38.1145 47.3884L38.4114 48.0947ZM39.6239 49.5195L37.9686 45.7078H37.7547L36.0994 49.5195H36.678L37.0981 48.5477H38.6076L39.0277 49.5195H39.6239Z" stroke="#261F23" stroke-width="0.124958"/>
<path d="M44.923 49.5205V47.8758H42.9205V49.5205H42.3318V45.7607H42.9205V47.3884H44.923V45.7607H45.5142V49.5205H44.923Z" fill="#261F23"/>
<path d="M44.923 49.5205V47.8758H42.9205V49.5205H42.3318V45.7607H42.9205V47.3884H44.923V45.7607H45.5142V49.5205H44.923Z" stroke="#261F23" stroke-width="0.124958"/>
<path d="M2.8973 46.2535V49.5442H2.30861V46.2535H1.06079V45.759H4.14512V46.2535H2.8973Z" fill="#261F23"/>
<path d="M2.8973 46.2535V49.5442H2.30861V46.2535H1.06079V45.759H4.14512V46.2535H2.8973Z" stroke="#261F23" stroke-width="0.124958"/>
<path d="M9.35449 49.5442V47.8903H7.35195V49.5442H6.76074V45.759H7.35195V47.3983H9.35449V45.759H9.94318V49.5442H9.35449Z" fill="#261F23"/>
<path d="M9.35449 49.5442V47.8903H7.35195V49.5442H6.76074V45.759H7.35195V47.3983H9.35449V45.759H9.94318V49.5442H9.35449Z" stroke="#261F23" stroke-width="0.124958"/>
<path d="M12.927 49.5442V45.759H15.0201V46.2535H13.5157V47.3983H14.7761V47.8903H13.5157V49.0522H15.234V49.5442H12.927Z" fill="#261F23"/>
<path d="M12.927 49.5442V45.759H15.0201V46.2535H13.5157V47.3983H14.7761V47.8903H13.5157V49.0522H15.234V49.5442H12.927Z" stroke="#261F23" stroke-width="0.124958"/>
<path d="M4.88183 57.4918L4.7661 56.2398C4.72333 55.7818 4.68811 55.3629 4.66295 54.922H4.65037C4.46924 55.2947 4.26798 55.699 4.05414 56.1009L3.31199 57.5186H3.09312L2.34342 56.1131C2.11197 55.6747 1.89813 55.2654 1.74718 54.9342H1.7346C1.70441 55.3848 1.66668 55.8403 1.63146 56.2495L1.52328 57.4893H1L1.3346 53.7041H1.69938L2.62518 55.4408C2.8516 55.8671 3.05035 56.2593 3.22142 56.6222H3.234C3.39249 56.2641 3.58621 55.8744 3.81766 55.436L4.73088 53.7041H5.09567L5.44284 57.4893H4.88183" fill="#261F23"/>
<path d="M4.88183 57.4918L4.7661 56.2398C4.72333 55.7818 4.68811 55.3629 4.66295 54.922H4.65037C4.46924 55.2947 4.26798 55.699 4.05414 56.1009L3.31199 57.5186H3.09312L2.34342 56.1131C2.11197 55.6747 1.89813 55.2654 1.74718 54.9342H1.7346C1.70441 55.3848 1.66668 55.8403 1.63146 56.2495L1.52328 57.4893H1L1.3346 53.7041H1.69938L2.62518 55.4408C2.8516 55.8671 3.05035 56.2593 3.22142 56.6222H3.234C3.39249 56.2641 3.58621 55.8744 3.81766 55.436L4.73088 53.7041H5.09567L5.44284 57.4893H4.88183V57.4918Z" stroke="#261F23" stroke-width="0.124958"/>
<path d="M10.542 56.0578H9.42756L9.72693 55.3414C9.80492 55.144 9.87285 54.9735 9.97599 54.6689H9.98857C10.0917 54.9662 10.1596 55.1392 10.2452 55.3463L10.542 56.0578ZM11.7521 57.4929L10.0967 53.6528H9.88291L8.22754 57.4929H8.80616L9.2263 56.5134H10.7358L11.1559 57.4929H11.7521Z" fill="#261F23"/>
<path d="M10.542 56.0578H9.42756L9.72693 55.3414C9.80492 55.144 9.87285 54.9735 9.97599 54.6689H9.98857C10.0917 54.9662 10.1596 55.1392 10.2452 55.3463L10.542 56.0578ZM11.7521 57.4929L10.0967 53.6528H9.88291L8.22754 57.4929H8.80616L9.2263 56.5134H10.7358L11.1559 57.4929H11.7521Z" stroke="#261F23" stroke-width="0.124958"/>
<path d="M16.449 57.5649C15.4024 57.5649 14.3181 56.883 14.3181 55.5994C14.3181 54.289 15.4452 53.6313 16.4112 53.6313C16.9471 53.6313 17.3773 53.758 17.6641 53.9334L17.5534 54.4327C17.2691 54.2549 16.8842 54.1307 16.4766 54.1307C15.7169 54.1307 14.9118 54.6178 14.9118 55.6091C14.9118 56.5882 15.6917 57.0681 16.4817 57.0681C16.8414 57.0681 17.1207 56.9974 17.3043 56.8708V56.0841H16.4137V55.6213H17.8679V57.1582C17.4955 57.4456 17.0276 57.5649 16.449 57.5649Z" fill="#261F23"/>
<path d="M16.449 57.5649C15.4024 57.5649 14.3181 56.883 14.3181 55.5994C14.3181 54.289 15.4452 53.6313 16.4112 53.6313C16.9471 53.6313 17.3773 53.758 17.6641 53.9334L17.5534 54.4327C17.2691 54.2549 16.8842 54.1307 16.4766 54.1307C15.7169 54.1307 14.9118 54.6178 14.9118 55.6091C14.9118 56.5882 15.6917 57.0681 16.4817 57.0681C16.8414 57.0681 17.1207 56.9974 17.3043 56.8708V56.0841H16.4137V55.6213H17.8679V57.1582C17.4955 57.4456 17.0276 57.5649 16.449 57.5649Z" stroke="#261F23" stroke-width="0.124958"/>
<path d="M23.0456 56.0578H21.9311L22.228 55.3414C22.306 55.144 22.3739 54.9735 22.4771 54.6689H22.4896C22.5928 54.9662 22.6607 55.1392 22.7437 55.3463L23.0456 56.0578ZM24.2582 57.4929L22.6029 53.6528H22.389L20.7336 57.4929H21.3123L21.7324 56.5134H23.2419L23.662 57.4929H24.2582Z" fill="#261F23"/>
<path d="M23.0456 56.0578H21.9311L22.228 55.3414C22.306 55.144 22.3739 54.9735 22.4771 54.6689H22.4896C22.5928 54.9662 22.6607 55.1392 22.7437 55.3463L23.0456 56.0578ZM24.2582 57.4929L22.6029 53.6528H22.389L20.7336 57.4929H21.3123L21.7324 56.5134H23.2419L23.662 57.4929H24.2582Z" stroke="#261F23" stroke-width="0.124958"/>
<path d="M26.9526 57.4929V57.3565L28.2306 55.1686C28.4319 54.83 28.6332 54.4864 28.8218 54.1965L28.8168 54.1892H27.0508V53.7092H29.6068V53.8457L28.3237 56.0287C28.1401 56.3381 27.9212 56.706 27.7325 57.0081L27.7401 57.013H29.7074V57.4929H26.9526Z" fill="#261F23"/>
<path d="M26.9526 57.4929V57.3565L28.2306 55.1686C28.4319 54.83 28.6332 54.4864 28.8218 54.1965L28.8168 54.1892H27.0508V53.7092H29.6068V53.8457L28.3237 56.0287C28.1401 56.3381 27.9212 56.706 27.7325 57.0081L27.7401 57.013H29.7074V57.4929H26.9526V57.4929Z" stroke="#261F23" stroke-width="0.124958"/>
<path d="M33.3305 53.7092H32.7393V57.4946H33.3305V53.7092Z" fill="#261F23"/>
<path d="M33.3305 53.7092H32.7393V57.4946H33.3305V53.7092Z" stroke="#261F23" stroke-width="0.124958"/>
<path d="M39.9087 57.5747L38.2156 55.7941C37.8634 55.4263 37.4861 55.017 37.1942 54.6663L37.1817 54.6736C37.1942 55.017 37.1942 55.285 37.1942 55.5627V57.4894H36.603V53.7041H37.0106L38.4899 55.2874C38.8244 55.6479 39.1943 56.045 39.4936 56.4079L39.5062 56.403C39.4936 56.1107 39.4936 55.7965 39.4936 55.5188V53.7041H40.0848V57.5723H39.9087" fill="#261F23"/>
<path d="M39.9087 57.5747L38.2156 55.7941C37.8634 55.4263 37.4861 55.017 37.1942 54.6663L37.1817 54.6736C37.1942 55.017 37.1942 55.285 37.1942 55.5627V57.4894H36.603V53.7041H37.0106L38.4899 55.2874C38.8244 55.6479 39.1943 56.045 39.4936 56.4079L39.5062 56.403C39.4936 56.1107 39.4936 55.7965 39.4936 55.5188V53.7041H40.0848V57.5723H39.9087V57.5747Z" stroke="#261F23" stroke-width="0.124958"/>
<path d="M43.2671 57.4929V53.7092H45.3602V54.1989H43.8558V55.3465H45.1162V55.8386H43.8558V57.0008H45.5715V57.4929H43.2671Z" fill="#261F23"/>
<path d="M43.2671 57.4929V53.7092H45.3602V54.1989H43.8558V55.3465H45.1162V55.8386H43.8558V57.0008H45.5715V57.4929H43.2671Z" stroke="#261F23" stroke-width="0.124958"/>
</svg>
