<svg width="145" height="29" viewBox="0 0 145 29" fill="none" xmlns="http://www.w3.org/2000/svg">
<path d="M13.5767 2.21993C13.9183 1.39863 15.0817 1.39864 15.4233 2.21993L18.1007 8.6572C18.2447 9.00344 18.5704 9.24001 18.9441 9.26998L25.8937 9.82712C26.7804 9.8982 27.1399 11.0047 26.4644 11.5834L21.1695 16.119C20.8847 16.3629 20.7604 16.7457 20.8474 17.1105L22.465 23.8921C22.6714 24.7573 21.7302 25.4412 20.9711 24.9775L15.0213 21.3434C14.7012 21.1479 14.2988 21.1479 13.9787 21.3434L8.02894 24.9775C7.26984 25.4412 6.32859 24.7573 6.53497 23.8921L8.15264 17.1105C8.23964 16.7457 8.11527 16.3629 7.83048 16.119L2.53564 11.5834C1.8601 11.0047 2.21963 9.8982 3.10628 9.82712L10.0559 9.26998C10.4296 9.24001 10.7553 9.00344 10.8993 8.6572L13.5767 2.21993Z" fill="#F4BE17"/>
<path d="M42.5767 2.21993C42.9183 1.39863 44.0817 1.39864 44.4233 2.21993L47.1007 8.6572C47.2447 9.00344 47.5704 9.24001 47.9441 9.26998L54.8937 9.82712C55.7804 9.8982 56.1399 11.0047 55.4644 11.5834L50.1695 16.119C49.8847 16.3629 49.7604 16.7457 49.8474 17.1105L51.465 23.8921C51.6714 24.7573 50.7302 25.4412 49.9711 24.9775L44.0213 21.3434C43.7012 21.1479 43.2988 21.1479 42.9787 21.3434L37.0289 24.9775C36.2698 25.4412 35.3286 24.7573 35.535 23.8921L37.1526 17.1105C37.2396 16.7457 37.1153 16.3629 36.8305 16.119L31.5356 11.5834C30.8601 11.0047 31.2196 9.8982 32.1063 9.82712L39.0559 9.26998C39.4296 9.24001 39.7553 9.00344 39.8993 8.6572L42.5767 2.21993Z" fill="#F4BE17"/>
<path d="M71.5767 2.21993C71.9183 1.39863 73.0817 1.39864 73.4233 2.21993L76.1007 8.6572C76.2447 9.00344 76.5704 9.24001 76.9441 9.26998L83.8937 9.82712C84.7804 9.8982 85.1399 11.0047 84.4644 11.5834L79.1695 16.119C78.8847 16.3629 78.7604 16.7457 78.8474 17.1105L80.465 23.8921C80.6714 24.7573 79.7302 25.4412 78.9711 24.9775L73.0213 21.3434C72.7012 21.1479 72.2988 21.1479 71.9787 21.3434L66.0289 24.9775C65.2698 25.4412 64.3286 24.7573 64.535 23.8921L66.1526 17.1105C66.2396 16.7457 66.1153 16.3629 65.8305 16.119L60.5356 11.5834C59.8601 11.0047 60.2196 9.8982 61.1063 9.82712L68.0559 9.26998C68.4296 9.24001 68.7553 9.00344 68.8993 8.6572L71.5767 2.21993Z" fill="#F4BE17"/>
<path d="M100.577 2.21993C100.918 1.39863 102.082 1.39864 102.423 2.21993L105.101 8.6572C105.245 9.00344 105.57 9.24001 105.944 9.26998L112.894 9.82712C113.78 9.8982 114.14 11.0047 113.464 11.5834L108.17 16.119C107.885 16.3629 107.76 16.7457 107.847 17.1105L109.465 23.8921C109.671 24.7573 108.73 25.4412 107.971 24.9775L102.021 21.3434C101.701 21.1479 101.299 21.1479 100.979 21.3434L95.0289 24.9775C94.2698 25.4412 93.3286 24.7573 93.535 23.8921L95.1526 17.1105C95.2396 16.7457 95.1153 16.3629 94.8305 16.119L89.5356 11.5834C88.8601 11.0047 89.2196 9.8982 90.1063 9.82712L97.0559 9.26998C97.4296 9.24001 97.7553 9.00344 97.8993 8.6572L100.577 2.21993Z" fill="#F4BE17"/>
<path d="M129.577 2.21993C129.918 1.39863 131.082 1.39864 131.423 2.21993L134.101 8.6572C134.245 9.00344 134.57 9.24001 134.944 9.26998L141.894 9.82712C142.78 9.8982 143.14 11.0047 142.464 11.5834L137.17 16.119C136.885 16.3629 136.76 16.7457 136.847 17.1105L138.465 23.8921C138.671 24.7573 137.73 25.4412 136.971 24.9775L131.021 21.3434C130.701 21.1479 130.299 21.1479 129.979 21.3434L124.029 24.9775C123.27 25.4412 122.329 24.7573 122.535 23.8921L124.153 17.1105C124.24 16.7457 124.115 16.3629 123.83 16.119L118.536 11.5834C117.86 11.0047 118.22 9.8982 119.106 9.82712L126.056 9.26998C126.43 9.24001 126.755 9.00344 126.899 8.6572L129.577 2.21993Z" fill="#F4BE17"/>
</svg>
