<svg width="116" height="23" viewBox="0 0 116 23" fill="none" xmlns="http://www.w3.org/2000/svg">
<g clip-path="url(#clip0)">
<path d="M21.75 0.574707H0V22.3247H21.75V0.574707Z" fill="#00B67A"/>
<path d="M45.3125 0.574707H23.5625V22.3247H45.3125V0.574707Z" fill="#00B67A"/>
<path d="M68.875 0.574707H47.125V22.3247H68.875V0.574707Z" fill="#00B67A"/>
<path d="M92.4375 0.574707H70.6875V22.3247H92.4375V0.574707Z" fill="#00B67A"/>
<path d="M116 0.574707H105.125V22.3247H116V0.574707Z" fill="#DCDCE6"/>
<path d="M105.125 0.574707H94.25V22.3247H105.125V0.574707Z" fill="#00B67A"/>
<path d="M10.875 15.2333L14.1828 14.395L15.5648 18.6544L10.875 15.2333ZM18.4874 9.72781H12.6648L10.875 4.245L9.08511 9.72781H3.26245L7.97495 13.1262L6.18511 18.6091L10.8976 15.2106L13.7976 13.1262L18.4874 9.72781Z" fill="white"/>
<path d="M34.4375 15.2333L37.7453 14.395L39.1273 18.6544L34.4375 15.2333ZM42.05 9.72781H36.2273L34.4375 4.245L32.6476 9.72781H26.825L31.5375 13.1262L29.7476 18.6091L34.4601 15.2106L37.3601 13.1262L42.05 9.72781Z" fill="white"/>
<path d="M58 15.2333L61.3078 14.395L62.6898 18.6544L58 15.2333ZM65.6125 9.72781H59.7898L58 4.245L56.2101 9.72781H50.3875L55.1 13.1262L53.3101 18.6091L58.0226 15.2106L60.9226 13.1262L65.6125 9.72781Z" fill="white"/>
<path d="M81.5625 15.2333L84.8703 14.395L86.2523 18.6544L81.5625 15.2333ZM89.175 9.72781H83.3523L81.5625 4.245L79.7726 9.72781H73.95L78.6625 13.1262L76.8726 18.6091L81.5851 15.2106L84.4851 13.1262L89.175 9.72781Z" fill="white"/>
<path d="M105.125 15.2333L108.433 14.395L109.815 18.6544L105.125 15.2333ZM112.737 9.72781H106.915L105.125 4.245L103.335 9.72781H97.5125L102.225 13.1262L100.435 18.6091L105.148 15.2106L108.048 13.1262L112.737 9.72781Z" fill="white"/>
</g>
<defs>
<clipPath id="clip0">
<rect width="116" height="21.75" fill="white" transform="translate(0 0.574707)"/>
</clipPath>
</defs>
</svg>
