<svg width="61" height="45" viewBox="0 0 61 45" fill="none" xmlns="http://www.w3.org/2000/svg">
<path fill-rule="evenodd" clip-rule="evenodd" d="M29.8631 7.91401C18.1994 7.91401 8.62035 16.7299 7.85101 27.8475C7.81632 28.3251 7.79821 28.8086 7.79821 29.2964H0.0761719C0.0761719 28.794 0.0882399 28.2945 0.115393 27.8008C0.917918 12.5527 13.9303 0.428711 29.8631 0.428711C45.9046 0.428711 58.9833 12.7177 59.6229 28.1133C59.6395 28.5062 59.6471 28.9006 59.6471 29.2979H51.9265C51.9265 28.8538 51.913 28.4142 51.8843 27.9775C51.1798 16.7985 41.5706 7.91401 29.8631 7.91401ZM16.9339 42.0021C17.4031 42.0021 17.8345 41.9188 18.2177 41.7523C18.6008 41.5858 18.9297 41.355 19.1982 41.0688C19.4667 40.7796 19.6779 40.4378 19.8272 40.0493C19.9766 39.6593 20.052 39.2313 20.052 38.7756C20.052 38.3199 19.9766 37.892 19.8272 37.502C19.6779 37.1135 19.4667 36.7703 19.1982 36.4825C18.9297 36.1948 18.5993 35.964 18.2177 35.799C17.8345 35.6339 17.4031 35.5492 16.9339 35.5492C16.4542 35.5492 16.0167 35.6325 15.6336 35.799C15.2504 35.9655 14.9216 36.1948 14.6531 36.4825C14.3845 36.7717 14.1718 37.1135 14.024 37.502C13.8747 37.892 13.7992 38.3199 13.7992 38.7756C13.7992 39.2328 13.8747 39.6607 14.024 40.0493C14.1718 40.4378 14.3845 40.781 14.6531 41.0688C14.9201 41.3565 15.2504 41.5858 15.6336 41.7523C16.0152 41.9173 16.4527 42.0021 16.9339 42.0021ZM19.4456 33.2751C20.2179 33.5657 20.8922 33.9776 21.4534 34.4976C22.0131 35.019 22.4596 35.65 22.7779 36.3759C23.0962 37.1018 23.2576 37.9095 23.2576 38.7771C23.2576 39.6447 23.0962 40.4524 22.7779 41.1783C22.4596 41.9042 22.0146 42.5366 21.4534 43.0566C20.8937 43.5766 20.2179 43.987 19.4456 44.2791C18.6732 44.5698 17.8285 44.7173 16.9339 44.7173C16.0288 44.7173 15.181 44.5698 14.4147 44.2791C13.6499 43.9885 12.9741 43.5766 12.4084 43.0566C11.8412 42.5366 11.3932 41.9042 11.0749 41.1783C10.7566 40.4524 10.5952 39.6447 10.5952 38.7771C10.5952 37.9095 10.7566 37.1018 11.0749 36.3759C11.3932 35.65 11.8412 35.0176 12.4084 34.4976C12.9741 33.9776 13.6499 33.5657 14.4147 33.2751C15.1795 32.9844 16.0273 32.8369 16.9339 32.8369C17.8285 32.8369 18.6747 32.9844 19.4456 33.2751ZM0.117294 35.7041V33.0239H9.82755V35.7041H6.5571V44.5127H3.40433V35.7041H0.117294ZM33.2711 38.7603C33.2711 39.1707 33.1987 39.5679 33.0554 39.9389C32.9121 40.3099 32.7039 40.6385 32.4354 40.9145C32.1669 41.1905 31.832 41.4155 31.4367 41.5805C31.043 41.747 30.5875 41.8302 30.0821 41.8302H28.2478V35.7034H30.0987C30.6267 35.7034 31.0943 35.7823 31.4895 35.9371C31.8833 36.0919 32.2151 36.3096 32.4776 36.5856C32.7401 36.8631 32.9392 37.1873 33.0704 37.5524C33.2032 37.9205 33.2711 38.3265 33.2711 38.7603ZM34.6649 34.557C34.0993 34.0648 33.4189 33.6836 32.642 33.4192C31.8667 33.1578 31.0023 33.0234 30.0761 33.0234H25.0965V44.5117H30.0927C31.0083 44.5117 31.8667 44.3788 32.642 44.1159C33.4189 43.853 34.0993 43.4675 34.6649 42.9694C35.2306 42.4714 35.6787 41.8624 35.9969 41.1599C36.3152 40.4559 36.4767 39.6483 36.4767 38.7574C36.4767 37.8679 36.3152 37.0588 35.9969 36.3563C35.6787 35.6553 35.2306 35.0491 34.6649 34.557ZM41.6524 40.1967H44.4597L43.0568 36.1787L41.6524 40.1967ZM41.1138 33.0239H44.9997L45.0193 33.0648L49.4815 44.5127H45.9139L45.3331 42.8769H40.8016L40.2208 44.5127H36.6532L36.6864 44.428L41.1138 33.0239ZM56.6768 33.0239L54.1999 37.1529L51.6882 33.0239H48.1236L52.625 39.8856V44.5127H55.7778V39.8856L60.2596 33.0239H56.6768ZM17.8087 27.9342C18.5072 22.0891 23.6467 17.5351 29.8617 17.5351C36.1099 17.5351 41.2705 22.1358 41.9252 28.0233C41.9735 28.4424 41.9961 28.8645 41.9961 29.2954H49.7182C49.7182 28.8835 49.7061 28.476 49.679 28.0715C49.0273 18.0127 40.4047 10.0513 29.8602 10.0513C19.3323 10.0513 10.7203 17.9908 10.046 28.0262C10.0173 28.4454 10.0037 28.8689 10.0037 29.2954H17.7258C17.7288 28.8353 17.7544 28.3811 17.8087 27.9342ZM20.1137 27.4755C20.9902 23.0324 25.0224 19.6746 29.8632 19.6746C34.8684 19.6746 39.0063 23.2617 39.6911 27.9283C39.7575 28.3752 39.7922 28.8324 39.7922 29.2969H19.9357C19.9357 28.6747 19.9961 28.0656 20.1137 27.4755Z" fill="#261F23"/>
</svg>
